{
  "accessors": [
    {
      "bufferView": 2,
      "componentType": 5126,
      "count": 29,
      "max": [
        0.89340919256210327,
        0.03359125554561615,
        0.87949740886688232
      ],
      "min": [
        -0.89097702503204346,
        0.0017673837719485164,
        -0.89338231086730957
      ],
      "type": "VEC3"
    },
    {
      "bufferView": 2,
      "byteOffset": 348,
      "componentType": 5126,
      "count": 29,
      "max": [
        0.028524154797196388,
        0.9999699592590332,
        0.027496494352817535
      ],
      "min": [
        -0.041471809148788452,
        0.99891155958175659,
        -0.021351609379053116
      ],
      "type": "VEC3"
    },
    {
      "bufferView": 1,
      "componentType": 5126,
      "count": 29,
      "max": [
        0.62347906827926636,
        0.65921711921691895
      ],
      "min": [
        0.26887929439544678,
        0.23198419809341431
      ],
      "type": "VEC2"
    },
    {
      "bufferView": 0,
      "componentType": 5125,
      "count": 51,
      "max": [
        28
      ],
      "min": [
        0
      ],
      "type": "SCALAR"
    },
    {
      "bufferView": 2,
      "byteOffset": 696,
      "componentType": 5126,
      "count": 279,
      "max": [
        1.0525528192520142,
        0.063222631812095642,
        1.0420527458190918
      ],
      "min": [
        -1.0555242300033569,
        -0.075301244854927063,
        -1.0585176944732666
      ],
      "type": "VEC3"
    },
    {
      "bufferView": 2,
      "byteOffset": 4044,
      "componentType": 5126,
      "count": 279,
      "max": [
        0.91291642189025879,
        1,
        0.91617882251739502
      ],
      "min": [
        -0.91162484884262085,
        -1,
        -0.90186476707458496
      ],
      "type": "VEC3"
    },
    {
      "bufferView": 1,
      "byteOffset": 232,
      "componentType": 5126,
      "count": 279,
      "max": [
        0.49320578575134277,
        0.86817187070846558
      ],
      "min": [
        0.4792027473449707,
        0.81952643394470215
      ],
      "type": "VEC2"
    },
    {
      "bufferView": 0,
      "byteOffset": 204,
      "componentType": 5125,
      "count": 453,
      "max": [
        278
      ],
      "min": [
        0
      ],
      "type": "SCALAR"
    },
    {
      "bufferView": 2,
      "byteOffset": 7392,
      "componentType": 5126,
      "count": 342,
      "max": [
        1.7705988883972168,
        0.019804954528808594,
        0.7535780668258667
      ],
      "min": [
        -1.647714376449585,
        -0.018056154251098633,
        -1.3955434560775757
      ],
      "type": "VEC3"
    },
    {
      "bufferView": 2,
      "byteOffset": 11496,
      "componentType": 5126,
      "count": 342,
      "max": [
        0.91253799200057983,
        1,
        0.99854797124862671
      ],
      "min": [
        -0.95396488904953003,
        -1,
        -0.87193006277084351
      ],
      "type": "VEC3"
    },
    {
      "bufferView": 1,
      "byteOffset": 2464,
      "componentType": 5126,
      "count": 342,
      "max": [
        0.26513093709945679,
        0.43057191371917725
      ],
      "min": [
        0.13495185971260071,
        0.33227342367172241
      ],
      "type": "VEC2"
    },
    {
      "bufferView": 0,
      "byteOffset": 2016,
      "componentType": 5125,
      "count": 648,
      "max": [
        341
      ],
      "min": [
        0
      ],
      "type": "SCALAR"
    },
    {
      "bufferView": 2,
      "byteOffset": 15600,
      "componentType": 5126,
      "count": 168,
      "max": [
        0.53117179870605469,
        -0.013663530349731445,
        1.5748523473739624
      ],
      "min": [
        -0.73610186576843262,
        -0.077197551727294922,
        -0.083218306303024292
      ],
      "type": "VEC3"
    },
    {
      "bufferView": 2,
      "byteOffset": 17616,
      "componentType": 5126,
      "count": 168,
      "max": [
        0.96350616216659546,
        0.99806517362594604,
        0.98505580425262451
      ],
      "min": [
        -0.98277831077575684,
        -0.99806511402130127,
        -0.61348068714141846
      ],
      "type": "VEC3"
    },
    {
      "bufferView": 1,
      "byteOffset": 5200,
      "componentType": 5126,
      "count": 168,
      "max": [
        0.29262170195579529,
        0.29128921031951904
      ],
      "min": [
        0.1699194461107254,
        0.20421400666236877
      ],
      "type": "VEC2"
    },
    {
      "bufferView": 0,
      "byteOffset": 4608,
      "componentType": 5125,
      "count": 312,
      "max": [
        167
      ],
      "min": [
        0
      ],
      "type": "SCALAR"
    },
    {
      "bufferView": 2,
      "byteOffset": 19632,
      "componentType": 5126,
      "count": 710,
      "max": [
        1.8548917770385742,
        0.059468984603881836,
        1.110400915145874
      ],
      "min": [
        -1.1572635173797607,
        -0.084122657775878906,
        -1.6027877330780029
      ],
      "type": "VEC3"
    },
    {
      "bufferView": 2,
      "byteOffset": 28152,
      "componentType": 5126,
      "count": 710,
      "max": [
        1,
        0.99999469518661499,
        0.98796290159225464
      ],
      "min": [
        -0.99996316432952881,
        -0.99998915195465088,
        -0.98735988140106201
      ],
      "type": "VEC3"
    },
    {
      "bufferView": 1,
      "byteOffset": 6544,
      "componentType": 5126,
      "count": 710,
      "max": [
        0.84353137016296387,
        0.48538649082183838
      ],
      "min": [
        0.67910528182983398,
        0.35912692546844482
      ],
      "type": "VEC2"
    },
    {
      "bufferView": 0,
      "byteOffset": 5856,
      "componentType": 5125,
      "count": 1164,
      "max": [
        709
      ],
      "min": [
        0
      ],
      "type": "SCALAR"
    },
    {
      "bufferView": 2,
      "byteOffset": 36672,
      "componentType": 5126,
      "count": 144,
      "max": [
        0.19577246904373169,
        0.011933088302612305,
        0.4776977002620697
      ],
      "min": [
        -0.28352606296539307,
        -0.026958465576171875,
        -0.51270252466201782
      ],
      "type": "VEC3"
    },
    {
      "bufferView": 2,
      "byteOffset": 38400,
      "componentType": 5126,
      "count": 144,
      "max": [
        0.99821221828460693,
        1,
        0.98291283845901489
      ],
      "min": [
        -0.96907550096511841,
        -1,
        -0.99783402681350708
      ],
      "type": "VEC3"
    },
    {
      "bufferView": 1,
      "byteOffset": 12224,
      "componentType": 5126,
      "count": 144,
      "max": [
        0.92859286069869995,
        0.63856518268585205
      ],
      "min": [
        0.86488217115402222,
        0.50446480512619019
      ],
      "type": "VEC2"
    },
    {
      "bufferView": 0,
      "byteOffset": 10512,
      "componentType": 5125,
      "count": 252,
      "max": [
        143
      ],
      "min": [
        0
      ],
      "type": "SCALAR"
    },
    {
      "bufferView": 2,
      "byteOffset": 40128,
      "componentType": 5126,
      "count": 180,
      "max": [
        0.37076926231384277,
        0.0052625536918640137,
        0.37224891781806946
      ],
      "min": [
        -0.5394665002822876,
        -0.01836785301566124,
        -0.099464952945709229
      ],
      "type": "VEC3"
    },
    {
      "bufferView": 2,
      "byteOffset": 42288,
      "componentType": 5126,
      "count": 180,
      "max": [
        0.8843885064125061,
        1,
        0.75541126728057861
      ],
      "min": [
        -0.95991653203964233,
        -1,
        -0.80479210615158081
      ],
      "type": "VEC3"
    },
    {
      "bufferView": 1,
      "byteOffset": 13376,
      "componentType": 5126,
      "count": 180,
      "max": [
        0.84895336627960205,
        0.73430627584457397
      ],
      "min": [
        0.78735822439193726,
        0.63965761661529541
      ],
      "type": "VEC2"
    },
    {
      "bufferView": 0,
      "byteOffset": 11520,
      "componentType": 5125,
      "count": 324,
      "max": [
        179
      ],
      "min": [
        0
      ],
      "type": "SCALAR"
    },
    {
      "bufferView": 2,
      "byteOffset": 44448,
      "componentType": 5126,
      "count": 84,
      "max": [
        0.99808824062347412,
        0.011919498443603516,
        2.1619997024536133
      ],
      "min": [
        -0.2615029513835907,
        -0.10496711730957031,
        1.2083179950714111
      ],
      "type": "VEC3"
    },
    {
      "bufferView": 2,
      "byteOffset": 45456,
      "componentType": 5126,
      "count": 84,
      "max": [
        0.58131098747253418,
        0.99859410524368286,
        0.918923020362854
      ],
      "min": [
        -0.62275063991546631,
        -0.99796169996261597,
        -0.78003132343292236
      ],
      "type": "VEC3"
    },
    {
      "bufferView": 1,
      "byteOffset": 14816,
      "componentType": 5126,
      "count": 84,
      "max": [
        0.86043918132781982,
        0.2437366247177124
      ],
      "min": [
        0.6432572603225708,
        0.058833036571741104
      ],
      "type": "VEC2"
    },
    {
      "bufferView": 0,
      "byteOffset": 12816,
      "componentType": 5125,
      "count": 156,
      "max": [
        83
      ],
      "min": [
        0
      ],
      "type": "SCALAR"
    },
    {
      "bufferView": 2,
      "byteOffset": 46464,
      "componentType": 5126,
      "count": 156,
      "max": [
        1.7779898643493652,
        0.1384124755859375,
        0.26706552505493164
      ],
      "min": [
        -2.5487151145935059,
        -0.077362298965454102,
        -2.4202432632446289
      ],
      "type": "VEC3"
    },
    {
      "bufferView": 2,
      "byteOffset": 48336,
      "componentType": 5126,
      "count": 156,
      "max": [
        0.93946611881256104,
        0.99619078636169434,
        0.69544684886932373
      ],
      "min": [
        -0.86474460363388062,
        -0.99619084596633911,
        -0.75685912370681763
      ],
      "type": "VEC3"
    },
    {
      "bufferView": 1,
      "byteOffset": 15488,
      "componentType": 5126,
      "count": 156,
      "max": [
        0.8622739315032959,
        0.23522879183292389
      ],
      "min": [
        0.61314523220062256,
        0.06149599701166153
      ],
      "type": "VEC2"
    },
    {
      "bufferView": 0,
      "byteOffset": 13440,
      "componentType": 5125,
      "count": 288,
      "max": [
        155
      ],
      "min": [
        0
      ],
      "type": "SCALAR"
    }
  ],
  "asset": {
    "extras": {
      "author": "Hatty (https://sketchfab.com/Hatty53)",
      "license": "CC-BY-4.0 (http://creativecommons.org/licenses/by/4.0/)",
      "source": "https://sketchfab.com/3d-models/a-little-bit-of-everything-pizza-4526fa7074754ffcae29f49db480a45d",
      "title": "A Little Bit of Everything Pizza"
    },
    "generator": "Sketchfab-10.27.0",
    "version": "2.0"
  },
  "bufferViews": [
    {
      "buffer": 0,
      "byteLength": 14592,
      "byteOffset": 0,
      "name": "floatBufferViews",
      "target": 34963
    },
    {
      "buffer": 0,
      "byteLength": 16736,
      "byteOffset": 14592,
      "byteStride": 8,
      "name": "floatBufferViews",
      "target": 34962
    },
    {
      "buffer": 0,
      "byteLength": 50208,
      "byteOffset": 31328,
      "byteStride": 12,
      "name": "floatBufferViews",
      "target": 34962
    }
  ],
  "buffers": [
    {
      "byteLength": 81536,
      "uri": "scene.bin"
    }
  ],
  "images": [
    {
      "uri": "textures/Cheese_baseColor.png"
    }
  ],
  "materials": [
    {
      "doubleSided": true,
      "emissiveFactor": [
        0,
        0,
        0
      ],
      "name": "Cheese",
      "pbrMetallicRoughness": {
        "baseColorFactor": [
          1,
          1,
          1,
          1
        ],
        "baseColorTexture": {
          "index": 0,
          "texCoord": 0
        },
        "metallicFactor": 0,
        "roughnessFactor": 0.40000000000000002
      }
    },
    {
      "doubleSided": true,
      "emissiveFactor": [
        0,
        0,
        0
      ],
      "name": "Crust",
      "pbrMetallicRoughness": {
        "baseColorFactor": [
          1,
          1,
          1,
          1
        ],
        "baseColorTexture": {
          "index": 0,
          "texCoord": 0
        },
        "metallicFactor": 0,
        "roughnessFactor": 0.44771186779113759
      }
    },
    {
      "doubleSided": true,
      "emissiveFactor": [
        0,
        0,
        0
      ],
      "name": "Mushroom_1",
      "pbrMetallicRoughness": {
        "baseColorFactor": [
          1,
          1,
          1,
          1
        ],
        "baseColorTexture": {
          "index": 0,
          "texCoord": 0
        },
        "metallicFactor": 0,
        "roughnessFactor": 0.5
      }
    },
    {
      "doubleSided": true,
      "emissiveFactor": [
        0,
        0,
        0
      ],
      "name": "Mushroom_2",
      "pbrMetallicRoughness": {
        "baseColorFactor": [
          1,
          1,
          1,
          1
        ],
        "baseColorTexture": {
          "index": 0,
          "texCoord": 0
        },
        "metallicFactor": 0,
        "roughnessFactor": 0.5
      }
    },
    {
      "doubleSided": true,
      "emissiveFactor": [
        0,
        0,
        0
      ],
      "name": "Peppos",
      "pbrMetallicRoughness": {
        "baseColorFactor": [
          1,
          1,
          1,
          1
        ],
        "baseColorTexture": {
          "index": 0,
          "texCoord": 0
        },
        "metallicFactor": 0,
        "roughnessFactor": 0.5
      }
    },
    {
      "doubleSided": true,
      "emissiveFactor": [
        0,
        0,
        0
      ],
      "name": "Pepper_1",
      "pbrMetallicRoughness": {
        "baseColorFactor": [
          1,
          1,
          1,
          1
        ],
        "baseColorTexture": {
          "index": 0,
          "texCoord": 0
        },
        "metallicFactor": 0,
        "roughnessFactor": 0.5
      }
    },
    {
      "doubleSided": true,
      "emissiveFactor": [
        0,
        0,
        0
      ],
      "name": "Pepper_2",
      "pbrMetallicRoughness": {
        "baseColorFactor": [
          1,
          1,
          1,
          1
        ],
        "baseColorTexture": {
          "index": 0,
          "texCoord": 0
        },
        "metallicFactor": 0,
        "roughnessFactor": 0.5
      }
    },
    {
      "doubleSided": true,
      "emissiveFactor": [
        0,
        0,
        0
      ],
      "name": "Spinach",
      "pbrMetallicRoughness": {
        "baseColorFactor": [
          1,
          1,
          1,
          1
        ],
        "baseColorTexture": {
          "index": 0,
          "texCoord": 0
        },
        "metallicFactor": 0,
        "roughnessFactor": 0.5
      }
    },
    {
      "doubleSided": true,
      "emissiveFactor": [
        0,
        0,
        0
      ],
      "name": "Material",
      "pbrMetallicRoughness": {
        "baseColorFactor": [
          1,
          1,
          1,
          1
        ],
        "baseColorTexture": {
          "index": 0,
          "texCoord": 0
        },
        "metallicFactor": 0,
        "roughnessFactor": 0.5
      }
    }
  ],
  "meshes": [
    {
      "primitives": [
        {
          "attributes": {
            "NORMAL": 1,
            "POSITION": 0,
            "TEXCOORD_0": 2
          },
          "indices": 3,
          "material": 0,
          "mode": 4
        }
      ]
    },
    {
      "primitives": [
        {
          "attributes": {
            "NORMAL": 5,
            "POSITION": 4,
            "TEXCOORD_0": 6
          },
          "indices": 7,
          "material": 1,
          "mode": 4
        }
      ]
    },
    {
      "primitives": [
        {
          "attributes": {
            "NORMAL": 9,
            "POSITION": 8,
            "TEXCOORD_0": 10
          },
          "indices": 11,
          "material": 2,
          "mode": 4
        }
      ]
    },
    {
      "primitives": [
        {
          "attributes": {
            "NORMAL": 13,
            "POSITION": 12,
            "TEXCOORD_0": 14
          },
          "indices": 15,
          "material": 3,
          "mode": 4
        }
      ]
    },
    {
      "primitives": [
        {
          "attributes": {
            "NORMAL": 17,
            "POSITION": 16,
            "TEXCOORD_0": 18
          },
          "indices": 19,
          "material": 4,
          "mode": 4
        }
      ]
    },
    {
      "primitives": [
        {
          "attributes": {
            "NORMAL": 21,
            "POSITION": 20,
            "TEXCOORD_0": 22
          },
          "indices": 23,
          "material": 5,
          "mode": 4
        }
      ]
    },
    {
      "primitives": [
        {
          "attributes": {
            "NORMAL": 25,
            "POSITION": 24,
            "TEXCOORD_0": 26
          },
          "indices": 27,
          "material": 6,
          "mode": 4
        }
      ]
    },
    {
      "primitives": [
        {
          "attributes": {
            "NORMAL": 29,
            "POSITION": 28,
            "TEXCOORD_0": 30
          },
          "indices": 31,
          "material": 7,
          "mode": 4
        }
      ]
    },
    {
      "primitives": [
        {
          "attributes": {
            "NORMAL": 33,
            "POSITION": 32,
            "TEXCOORD_0": 34
          },
          "indices": 35,
          "material": 8,
          "mode": 4
        }
      ]
    }
  ],
  "nodes": [
    {
      "children": [
        1
      ],
      "name": "RootNode (gltf orientation matrix)",
      "rotation": [
        -0.70710678118654746,
        -0,
        -0,
        0.70710678118654757
      ]
    },
    {
      "children": [
        2
      ],
      "name": "RootNode (model correction matrix)"
    },
    {
      "children": [
        3
      ],
      "name": "root"
    },
    {
      "children": [
        4,
        7,
        11,
        14
      ],
      "matrix": [
        1,
        0,
        0,
        0,
        0,
        2.2204460492503131e-16,
        1,
        0,
        0,
        -1,
        2.2204460492503131e-16,
        0,
        0,
        0,
        0,
        1
      ],
      "name": "GLTF_SceneRootNode"
    },
    {
      "children": [
        5,
        6
      ],
      "matrix": [
        4.0471177101135254,
        0,
        0,
        0,
        0,
        4.0471177101135254,
        0,
        0,
        0,
        0,
        4.0471177101135254,
        0,
        0.55828523635864258,
        0.032532766461372375,
        -0.092570409178733826,
        1
      ],
      "name": "Pizza_0"
    },
    {
      "mesh": 0,
      "name": ""
    },
    {
      "mesh": 1,
      "name": ""
    },
    {
      "children": [
        8,
        9,
        10
      ],
      "matrix": [
        1.6331186294555664,
        0,
        0,
        0,
        0,
        1.6331186294555664,
        0,
        0,
        0,
        0,
        1.6331186294555664,
        0,
        0.5198063850402832,
        0.15763521194458008,
        0.34841072559356689,
        1
      ],
      "name": "Mushrooms_1"
    },
    {
      "mesh": 2,
      "name": ""
    },
    {
      "mesh": 3,
      "name": ""
    },
    {
      "mesh": 4,
      "name": ""
    },
    {
      "children": [
        12,
        13
      ],
      "matrix": [
        5.9684677124023438,
        0,
        0,
        0,
        0,
        5.9684677124023438,
        0,
        0,
        0,
        0,
        5.9684677124023438,
        0,
        1.0937345027923584,
        0.18718273937702179,
        0.18174660205841064,
        1
      ],
      "name": "Plane.001_2"
    },
    {
      "mesh": 5,
      "name": ""
    },
    {
      "mesh": 6,
      "name": ""
    },
    {
      "children": [
        15,
        16
      ],
      "matrix": [
        1.1307368278503418,
        0,
        0,
        0,
        0,
        1.1307368278503418,
        0,
        0,
        0,
        0,
        1.1307368278503418,
        0,
        0.39004659652709961,
        0.13930806517601013,
        0.14633029699325562,
        1
      ],
      "name": "Spinach_3"
    },
    {
      "mesh": 7,
      "name": ""
    },
    {
      "mesh": 8,
      "name": ""
    }
  ],
  "samplers": [
    {
      "magFilter": 9729,
      "minFilter": 9987,
      "wrapS": 10497,
      "wrapT": 10497
    }
  ],
  "scene": 0,
  "scenes": [
    {
      "name": "OSG_Scene",
      "nodes": [
        0
      ]
    }
  ],
  "textures": [
    {
      "sampler": 0,
      "source": 0
    }
  ]
}

